<?xml version="1.0" standalone="no"?>
<!DOCTYPE svg PUBLIC "-//W3C//DTD SVG 1.1//EN" "http://www.w3.org/Graphics/SVG/1.1/DTD/svg11.dtd">
<svg xmlns="http://www.w3.org/2000/svg" id="Layer_1" data-name="Layer 1" viewBox="0 0 1200 1200" width="1200" height="1200">
  <defs>
    <style>
      .cls-1, .cls-2, .cls-3, .cls-4 {
        stroke-width: 0px;
      }

      .cls-2 {
        fill: #0095db;
      }

      .cls-3 {
        fill: #fff;
      }

      .cls-4 {
        fill: #164194;
      }
    </style>
  </defs>
  <rect class="cls-1" width="1200" height="1200"/>
  <g>
    <g>
      <path class="cls-4" d="m622.3,701.34c0-22.2-57.36-28.44-57.36-51.18s54.27-32.42,54.27-52.47c0-27.38-58.67-34.71-58.67-56.71s78.34-57.69,78.34-88c0-38.62-112.99-69.91-112.99-102.67s121.68-90.45,121.68-165.25c0-55.73-39.11-85.07-39.11-85.07H106.59v704.01h492.07c-1.17-6.37-4.73-11.57-4.73-35.04,0-36.5,28.36-50.19,28.36-67.63Z"/>
      <path class="cls-2" d="m639.49,100c9.04,11.9,34.62,42.11,34.62,81.87,0,74.96-120.42,130.92-120.42,167.46s112.77,59.92,112.77,102.67-81.5,60.67-81.5,86.67,58.04,30.99,58.04,55.6c0,27.05-58.99,43.08-58.99,51.99s61.19,29.56,61.19,54.62-26.8,30.74-26.8,67.24c0,11.73,5.93,35.89,5.93,35.89h469.08V100h-453.91Z"/>
      <path class="cls-3" d="m645.19,700.88c0-25.06-61.19-45.71-61.19-54.62s58.99-24.93,58.99-51.99c0-24.61-58.04-29.61-58.04-55.6s81.5-43.92,81.5-86.67-112.77-66.13-112.77-102.67,120.42-92.5,120.42-167.46c0-39.76-25.58-69.98-34.62-81.87h-31.04s39.11,29.33,39.11,85.07c0,74.8-121.68,132.49-121.68,165.25s112.99,64.05,112.99,102.67c0,30.31-78.34,66-78.34,88s58.67,29.33,58.67,56.71c0,20.05-54.27,29.73-54.27,52.47s57.36,28.98,57.36,51.18c0,17.44-28.36,31.13-28.36,67.63,0,23.47,3.55,28.67,4.73,35.04h25.65s-5.93-24.16-5.93-35.89c0-36.5,26.8-42.18,26.8-67.24Z"/>
    </g>
    <g>
      <path class="cls-3" d="m216.89,1067.81c24.69,0,41.85-12.39,51.47-37.18l35.65,13.46c-7.68,18.87-18.94,32.9-33.78,42.11-14.84,9.2-32.63,13.8-53.34,13.8-31.45,0-55.75-8.9-72.9-26.71-17.16-17.8-25.73-42.71-25.73-74.71s8.28-56.74,24.83-73.94c16.55-17.2,40.56-25.81,72-25.81,22.94,0,41.62,4.6,56.05,13.81s24.56,22.73,30.38,40.58l-36.07,9.85c-3.05-9.8-9.04-17.59-17.97-23.38-8.93-5.78-19.45-8.67-31.56-8.67-18.5,0-32.53,5.74-42.11,17.2-9.57,11.47-14.36,28.26-14.36,50.36s4.92,39.63,14.78,51.47c9.85,11.84,24.07,17.76,42.66,17.76Z"/>
      <path class="cls-3" d="m422.07,1067.81c24.69,0,41.85-12.39,51.47-37.18l35.65,13.46c-7.68,18.87-18.94,32.9-33.78,42.11-14.84,9.2-32.63,13.8-53.34,13.8-31.45,0-55.75-8.9-72.9-26.71-17.16-17.8-25.73-42.71-25.73-74.71s8.28-56.74,24.83-73.94c16.55-17.2,40.56-25.81,72-25.81,22.94,0,41.62,4.6,56.05,13.81,14.43,9.2,24.56,22.73,30.38,40.58l-36.07,9.85c-3.05-9.8-9.04-17.59-17.97-23.38-8.93-5.78-19.45-8.67-31.56-8.67-18.5,0-32.53,5.74-42.11,17.2-9.57,11.47-14.36,28.26-14.36,50.36s4.92,39.63,14.78,51.47c9.85,11.84,24.07,17.76,42.66,17.76Z"/>
      <path class="cls-3" d="m662.08,1097.23v-83.8h-85.18v83.8h-40.93v-195.48h40.93v77.83h85.18v-77.83h40.93v195.48h-40.93Z"/>
      <path class="cls-3" d="m741.16,1097.23v-195.48h40.93v163.84h104.88v31.63h-145.81Z"/>
      <path class="cls-3" d="m1052.89,1097.23l-17.34-49.94h-74.5l-17.34,49.94h-40.93l71.31-195.48h48.28l71.03,195.48h-40.51Zm-54.66-165.37l-.83,3.05c-.93,3.33-2.04,7.12-3.33,11.38-1.3,4.25-9.25,27.65-23.86,70.2h56.19l-19.28-56.19-5.97-18.87-2.91-9.57Z"/>
    </g>
  </g>
</svg>